<svg width="16" height="16" viewBox="0 0 16 16" fill="none" xmlns="http://www.w3.org/2000/svg">
<path d="M8.56553 8.03516L15.0621 1.53861C15.2085 1.39217 15.2085 1.15475 15.0621 1.00831C14.9156 0.861875 14.6782 0.861875 14.5317 1.00831L8.03519 7.50481L1.53864 1.00827C1.39221 0.861828 1.15479 0.861828 1.00835 1.00827C0.861863 1.1547 0.861863 1.39212 1.00835 1.53856L7.50485 8.03516L1.0083 14.5317C0.861816 14.6782 0.861816 14.9156 1.0083 15.062C1.08152 15.1353 1.17747 15.1719 1.27347 15.1719C1.36947 15.1719 1.46543 15.1353 1.53864 15.062L8.03519 8.5655L14.5317 15.062C14.605 15.1353 14.7009 15.1719 14.7969 15.1719C14.8929 15.1719 14.9889 15.1353 15.0621 15.062C15.2085 14.9156 15.2085 14.6782 15.0621 14.5317L8.56553 8.03516Z" fill="black"/>
</svg>
