<svg width="286" height="76" viewBox="0 0 286 76" fill="none" xmlns="http://www.w3.org/2000/svg">
<path d="M0.5 43.5C0.5 39.634 3.63401 36.5 7.5 36.5H49.5V50.5H7.5C3.63401 50.5 0.5 47.366 0.5 43.5Z" stroke="#E89C0B"/>
<path d="M285.5 41.5C285.5 37.634 282.366 34.5 278.5 34.5H236.5V48.5H278.5C282.366 48.5 285.5 45.366 285.5 41.5Z" stroke="#E89C0B"/>
<rect x="52.5" y="22.5" width="181" height="39" rx="10.5" stroke="#E89C0B"/>
<path d="M98.5625 50.5625C97.9375 51.0417 97.1562 51.5938 96.2188 52.2188C95.3021 52.8438 94.2188 53.5312 92.9688 54.2812C91.8438 54.9271 90.8438 55.4896 89.9688 55.9688C89.1146 56.4271 88.3958 56.7708 87.8125 57C86.9583 57.3958 86.0521 57.6771 85.0938 57.8438C84.1354 58.0312 83.1562 58.125 82.1562 58.125C81.8438 58.125 81.4896 58.0729 81.0938 57.9688C80.7188 57.8854 80.3125 57.7812 79.875 57.6562C79.3333 57.5104 78.875 57.3854 78.5 57.2812C78.125 57.1771 77.8125 57.1146 77.5625 57.0938L77.1875 56.7188L76.2812 56.5938C75.8854 56.5729 75.4062 56.375 74.8438 56C74.3021 55.625 73.7083 55.1042 73.0625 54.4375C72.4375 53.8125 71.9271 53.2188 71.5312 52.6562C71.1562 52.0938 70.8854 51.5833 70.7188 51.125L69.875 48.4375C69.5833 47.5208 69.3646 46.7812 69.2188 46.2188C69.0729 45.6562 69.0104 45.2917 69.0312 45.125L69.375 43.7188C69.2083 43.2396 69.0729 42.8438 68.9688 42.5312C68.8854 42.2188 68.8438 41.9792 68.8438 41.8125C68.8438 41.6458 68.8958 41.1354 69 40.2812C69.1042 39.4271 69.25 38.2396 69.4375 36.7188C69.5833 36.4271 69.7396 36.0729 69.9062 35.6562C70.0729 35.2396 70.2292 34.7708 70.375 34.25L70.2812 33.5625C70.2812 33.3958 70.3125 33.2083 70.375 33C70.4583 32.7708 70.5625 32.5208 70.6875 32.25C71.1667 31.2292 71.6458 30.1979 72.125 29.1562C72.6042 28.1146 73.0833 27.1042 73.5625 26.125C73.9792 25.375 74.5104 24.6042 75.1562 23.8125C75.8229 23.0208 76.5833 22.1979 77.4375 21.3438C77.625 21.1354 77.8542 20.8646 78.125 20.5312C78.3958 20.1979 78.7188 19.8333 79.0938 19.4375C79.4479 19.2292 79.875 18.9167 80.375 18.5C80.8958 18.0625 81.5104 17.5104 82.2188 16.8438C82.4271 16.7604 82.6771 16.6458 82.9688 16.5C83.2604 16.3542 83.6146 16.1771 84.0312 15.9688C84.1354 15.9062 84.2604 15.8021 84.4062 15.6562C84.5729 15.5104 84.7604 15.3542 84.9688 15.1875C85.1979 14.9792 86.0312 14.6667 87.4688 14.25C88.9062 13.8333 89.8438 13.625 90.2812 13.625C91.2396 13.625 92.0521 13.6979 92.7188 13.8438C93.3854 13.9688 93.9167 14.1771 94.3125 14.4688L95.3125 14.6562C96.1458 14.8438 96.7604 15.4792 97.1562 16.5625C97.5521 17.6458 97.75 19.2083 97.75 21.25C97.75 22.2083 97.7396 22.9792 97.7188 23.5625C97.6979 24.125 97.6667 24.5104 97.625 24.7188C97.5 25.3438 97.3542 26.1354 97.1875 27.0938C97.0417 28.0312 96.8438 29.125 96.5938 30.375C96.5729 30.7083 96.4271 31.2604 96.1562 32.0312C95.9062 32.7812 95.5729 33.7188 95.1562 34.8438C94.7188 36.0729 94.3438 37.0104 94.0312 37.6562C93.7188 38.2812 93.4583 38.625 93.25 38.6875C92.4167 38.8958 91.5208 39.125 90.5625 39.375C90.1042 39.375 89.7812 39.3438 89.5938 39.2812C89.4062 39.1979 89.3125 39.0729 89.3125 38.9062C89.3125 38.7604 89.3438 38.5312 89.4062 38.2188C89.4896 37.9062 89.5312 37.6875 89.5312 37.5625C89.4688 36.7708 89.4062 35.9688 89.3438 35.1562C89.3438 34.8646 89.4271 34.2917 89.5938 33.4375C89.7604 32.5833 90.0104 31.4896 90.3438 30.1562C90.6979 28.6979 91.0104 27.5521 91.2812 26.7188C91.5521 25.8646 91.7708 25.3333 91.9375 25.125C92.5417 24.5625 92.9792 24.0312 93.25 23.5312C93.5417 23.0104 93.6875 22.5417 93.6875 22.125C93.6875 21.5417 93.5417 21.0312 93.25 20.5938C92.9792 20.1562 92.5625 19.8229 92 19.5938C91.4583 19.4688 90.9062 19.3542 90.3438 19.25C89.8021 19.125 89.2604 18.9792 88.7188 18.8125C88.2812 18.9792 87.8854 19.1042 87.5312 19.1875C87.1979 19.2708 86.9062 19.3438 86.6562 19.4062C85.2604 19.6354 83.9167 20.2812 82.625 21.3438C81.3542 22.4062 80.1354 23.875 78.9688 25.75C78.0104 27.375 77.2396 29.0104 76.6562 30.6562C76.0729 32.2812 75.6771 33.9167 75.4688 35.5625C75.3854 36.0625 75.2812 36.6875 75.1562 37.4375C75.0312 38.1667 74.8542 39.0312 74.625 40.0312C74.8125 40.6562 74.9792 41.2292 75.125 41.75L74.8125 44.5938C74.8125 44.6979 74.9062 44.9167 75.0938 45.25C75.2812 45.5625 75.5729 46.0312 75.9688 46.6562C76.1979 47.0104 76.4062 47.4271 76.5938 47.9062C76.7812 48.3854 76.9271 48.9271 77.0312 49.5312C77.0729 49.6771 77.1458 49.8333 77.25 50C77.375 50.1667 77.5104 50.3021 77.6562 50.4062C77.9688 50.6771 78.2708 50.9167 78.5625 51.125C79.4583 52.0833 80.4062 52.8125 81.4062 53.3125C82.4271 53.7917 83.5104 54.0312 84.6562 54.0312C84.7604 54.0312 85.1458 53.9792 85.8125 53.875C86.5 53.7708 87.4375 53.6042 88.625 53.375C88.8333 53.2292 89.1042 53.0833 89.4375 52.9375C89.7917 52.7917 90.2083 52.6354 90.6875 52.4688C91.1042 52.0521 91.5208 51.7604 91.9375 51.5938C92.3542 51.4062 92.7396 51.3125 93.0938 51.3125C93.1979 51.1667 93.3229 50.9896 93.4688 50.7812C93.6354 50.5729 93.8438 50.3438 94.0938 50.0938C94.7188 49.8438 95.2917 49.5208 95.8125 49.125C96.3333 48.7083 96.8333 48.2292 97.3125 47.6875C98.1458 49.5 98.5625 50.4583 98.5625 50.5625ZM98.25 46.3125L101.094 44.4375C101.198 44.3333 101.323 44.1979 101.469 44.0312C101.615 43.8438 101.781 43.5833 101.969 43.25C102.115 42.9792 102.302 42.75 102.531 42.5625C102.781 42.375 103.062 42.2083 103.375 42.0625C103.542 41.8542 103.781 41.5938 104.094 41.2812C104.406 40.9688 104.802 40.6042 105.281 40.1875C105.51 40.0625 105.802 39.8854 106.156 39.6562C106.51 39.4062 106.896 39.0833 107.312 38.6875C109.208 36.8958 110.865 35.5521 112.281 34.6562C113.719 33.7604 114.927 33.3125 115.906 33.3125C116.448 33.3125 116.844 33.4271 117.094 33.6562C117.365 33.8854 117.5 34.2083 117.5 34.625C117.5 35.0625 117.417 35.4479 117.25 35.7812C117.104 36.1146 116.865 36.3958 116.531 36.625C116.01 37 115.448 37.4167 114.844 37.875C114.51 38.3125 114.104 38.7812 113.625 39.2812C113.146 39.7604 112.583 40.2396 111.938 40.7188C111.729 40.9896 111.552 41.2292 111.406 41.4375C111.302 41.5417 111.104 41.7292 110.812 42C110.521 42.2708 110.135 42.5833 109.656 42.9375C109.448 43.3958 108.99 43.9896 108.281 44.7188C107.594 45.4479 106.667 46.3229 105.5 47.3438C105.354 47.4896 105.094 47.8229 104.719 48.3438C104.344 48.8646 103.854 49.5521 103.25 50.4062L103.469 50.6875C103.927 50.5417 104.406 50.2917 104.906 49.9375C105.406 49.5833 105.958 49.1146 106.562 48.5312C107.271 47.8854 107.844 47.3646 108.281 46.9688C108.74 46.5521 109.062 46.2812 109.25 46.1562C109.396 46.0729 109.542 45.9896 109.688 45.9062C109.833 45.8229 110 45.7188 110.188 45.5938C111.146 44.4479 112.042 43.6042 112.875 43.0625C113.708 42.5 114.479 42.2188 115.188 42.2188C115.625 42.2188 115.958 42.3958 116.188 42.75C116.417 43.0833 116.552 43.5938 116.594 44.2812C116.552 45.3229 116.531 46.3229 116.531 47.2812C116.51 47.9479 116.688 48.5521 117.062 49.0938C117.458 49.6146 117.969 49.875 118.594 49.875C118.781 49.875 118.958 49.8229 119.125 49.7188C119.312 49.6146 119.5 49.4792 119.688 49.3125C119.833 49.125 119.969 48.9479 120.094 48.7812C120.24 48.6146 120.385 48.4479 120.531 48.2812C120.615 48.2396 120.729 48.1667 120.875 48.0625C121.042 47.9583 121.198 47.8333 121.344 47.6875C121.635 48.3125 121.875 48.8646 122.062 49.3438C122.271 49.8021 122.427 50.2083 122.531 50.5625C122.052 51 121.573 51.4583 121.094 51.9375C120.635 52.3958 120.146 52.8333 119.625 53.25C119 53.7292 118.396 54.0938 117.812 54.3438C117.229 54.5729 116.646 54.6875 116.062 54.6875C114.708 54.6875 113.667 54.3021 112.938 53.5312C112.208 52.7604 111.781 51.5938 111.656 50.0312C111.656 49.8438 111.625 49.6562 111.562 49.4688C111.521 49.2604 111.417 49.0521 111.25 48.8438C111.146 48.9479 111.031 49.0625 110.906 49.1875C110.781 49.2917 110.635 49.4375 110.469 49.625C110.198 49.8333 109.854 50.0938 109.438 50.4062C109.042 50.7188 108.573 51.0938 108.031 51.5312C107.302 52.2812 106.688 52.8958 106.188 53.375C105.688 53.8542 105.333 54.1979 105.125 54.4062C104.708 54.7604 104.219 55.1146 103.656 55.4688C103.115 55.8229 102.5 56.1875 101.812 56.5625C101.375 56.7917 101 56.9688 100.688 57.0938C100.375 57.2396 100.146 57.3125 100 57.3125C99 57.3125 98.2604 57.0729 97.7812 56.5938C97.3021 56.0938 97.0625 55.3333 97.0625 54.3125C97.0625 53.75 97.1875 53.2188 97.4375 52.7188C97.6667 52.1979 98.0208 51.6979 98.5 51.2188C98.5417 50.9479 98.5625 50.7292 98.5625 50.5625C98.5625 50.4583 98.5312 50.3542 98.4688 50.25C98.4271 50.125 98.3646 49.9896 98.2812 49.8438C98.1562 49.5521 98.0208 49.2292 97.875 48.875C97.7083 48.5 97.5312 48.1042 97.3438 47.6875C97.4271 47.6042 97.5521 47.4479 97.7188 47.2188C97.8646 46.9688 98.0417 46.6667 98.25 46.3125ZM150 50.5C149.875 50.7083 149.771 50.8542 149.688 50.9375C149.604 51.0208 149.469 51.1771 149.281 51.4062C149.156 51.5312 149 51.6667 148.812 51.8125C148.646 51.9375 148.479 52.0833 148.312 52.25C148.146 52.3958 147.979 52.5729 147.812 52.7812C147.667 52.9896 147.5 53.1562 147.312 53.2812C146.833 53.6146 146.323 53.9167 145.781 54.1875C145.24 54.4375 144.708 54.6458 144.188 54.8125C143.812 54.9375 143.427 55.0417 143.031 55.125C142.635 55.1875 142.26 55.2188 141.906 55.2188C141.656 55.2188 141.417 55.1875 141.188 55.125C140.979 55.0625 140.781 54.9896 140.594 54.9062C140.406 54.8229 140.229 54.7083 140.062 54.5625C139.896 54.3958 139.75 54.2292 139.625 54.0625C139.5 53.8958 139.385 53.6979 139.281 53.4688C139.198 53.2396 139.125 53 139.062 52.75C139.042 52.6042 139.021 52.4375 139 52.25C138.979 52.0417 138.958 51.8438 138.938 51.6562C138.917 51.4062 138.875 51.1562 138.812 50.9062C138.771 50.6354 138.75 50.3542 138.75 50.0625C138.75 49.875 138.781 49.6875 138.844 49.5C138.906 49.3125 138.938 49.125 138.938 48.9375C138.958 48.625 138.99 48.3021 139.031 47.9688C139.073 47.6354 139.125 47.3125 139.188 47C138.917 47.0208 138.625 47.0729 138.312 47.1562C138.021 47.2396 137.75 47.3646 137.5 47.5312C137.25 47.7188 137.021 47.9479 136.812 48.2188C136.604 48.4896 136.375 48.75 136.125 49C135.875 49.2708 135.583 49.5625 135.25 49.875C134.938 50.1667 134.656 50.4896 134.406 50.8438C134.177 51.1562 133.958 51.5 133.75 51.875C133.562 52.2292 133.344 52.5938 133.094 52.9688C132.906 53.2188 132.74 53.5417 132.594 53.9375C132.448 54.3333 132.271 54.6667 132.062 54.9375C131.896 55.1458 131.688 55.4271 131.438 55.7812C131.188 56.1354 130.979 56.4167 130.812 56.625C130.646 56.8333 130.375 56.9583 130 57C129.625 57.0625 129.344 57.1458 129.156 57.25C128.844 57.3958 128.583 57.4375 128.375 57.375C128.188 57.3125 127.958 57.2188 127.688 57.0938C127.5 57.0312 127.312 56.9167 127.125 56.75C126.938 56.5833 126.792 56.4375 126.688 56.3125C126.521 56.125 126.438 55.8958 126.438 55.625C126.438 55.3333 126.458 55.0417 126.5 54.75C126.521 54.5417 126.583 54.3021 126.688 54.0312C126.792 53.7604 126.875 53.5 126.938 53.25C127.021 52.8958 127.104 52.5312 127.188 52.1562C127.292 51.7812 127.396 51.4167 127.5 51.0625C127.646 50.625 127.802 50.1979 127.969 49.7812C128.135 49.3438 128.281 48.9375 128.406 48.5625C128.552 48.125 128.688 47.6979 128.812 47.2812C128.958 46.8646 129.062 46.5 129.125 46.1875C129.208 45.7708 129.24 45.4271 129.219 45.1562C129.219 44.8646 129.135 44.6771 128.969 44.5938C128.844 44.5312 128.656 44.5625 128.406 44.6875C128.156 44.7917 127.896 44.9688 127.625 45.2188C127.375 45.4271 127.104 45.6875 126.812 46C126.521 46.2917 126.229 46.5938 125.938 46.9062C125.771 47.0938 125.583 47.3021 125.375 47.5312C125.167 47.7604 124.958 48 124.75 48.25C124.5 48.5417 124.229 48.8438 123.938 49.1562C123.667 49.4479 123.406 49.7188 123.156 49.9688C122.99 50.1562 122.812 50.3333 122.625 50.5C122.458 50.6458 122.312 50.7708 122.188 50.875L120.938 48.0312C121.125 47.8854 121.323 47.7188 121.531 47.5312C121.719 47.3229 121.917 47.1042 122.125 46.875C122.5 46.5 122.906 46.0625 123.344 45.5625C123.781 45.0417 124.219 44.5208 124.656 44C125.094 43.4792 125.531 42.9479 125.969 42.4062C126.427 41.8646 126.875 41.3542 127.312 40.875C127.604 40.5417 127.896 40.1979 128.188 39.8438C128.5 39.4896 128.802 39.1458 129.094 38.8125C129.49 38.3333 129.875 37.875 130.25 37.4375C130.646 37 131 36.6562 131.312 36.4062C131.688 36.0938 132.052 35.8438 132.406 35.6562C132.76 35.4688 133.125 35.375 133.5 35.375C133.729 35.375 133.979 35.4167 134.25 35.5C134.521 35.5625 134.802 35.6562 135.094 35.7812C135.344 35.9062 135.542 36.0938 135.688 36.3438C135.833 36.5938 135.927 36.875 135.969 37.1875C136.031 37.5417 136.031 37.9479 135.969 38.4062C135.927 38.8438 135.844 39.3125 135.719 39.8125C135.656 40.1458 135.552 40.5 135.406 40.875C135.281 41.2292 135.156 41.5938 135.031 41.9688C134.948 42.2188 134.844 42.4896 134.719 42.7812C134.615 43.0729 134.51 43.3438 134.406 43.5938C134.24 43.9688 134.062 44.3646 133.875 44.7812C133.688 45.1979 133.5 45.5938 133.312 45.9688C133.104 46.4271 132.865 46.8958 132.594 47.375C132.323 47.8542 132.125 48.2708 132 48.625C131.854 49.0208 131.792 49.3542 131.812 49.625C131.854 49.875 131.958 50.0417 132.125 50.125C132.25 50.0833 132.354 49.9688 132.438 49.7812C132.521 49.5729 132.635 49.375 132.781 49.1875C132.969 48.9792 133.115 48.7292 133.219 48.4375C133.323 48.1458 133.479 47.8438 133.688 47.5312C133.875 47.2396 134.115 46.9375 134.406 46.625C134.698 46.2917 134.948 45.9688 135.156 45.6562C135.344 45.4062 135.573 45.1875 135.844 45C136.135 44.8125 136.375 44.625 136.562 44.4375C136.833 44.1667 137.146 43.9271 137.5 43.7188C137.854 43.4896 138.219 43.3125 138.594 43.1875C138.823 43.1042 139.062 43.0312 139.312 42.9688C139.583 42.9062 139.844 42.8646 140.094 42.8438C140.156 42.5938 140.219 42.3542 140.281 42.125C140.344 41.875 140.417 41.6354 140.5 41.4062C140.583 41.1562 140.677 40.9167 140.781 40.6875C140.906 40.4583 141 40.2396 141.062 40.0312C141.146 39.7812 141.208 39.5208 141.25 39.25C141.312 38.9792 141.375 38.7396 141.438 38.5312C141.5 38.2812 141.573 38.0312 141.656 37.7812C141.76 37.5104 141.844 37.2604 141.906 37.0312C142.031 36.6771 142.365 36.3646 142.906 36.0938C143.469 35.8021 144.031 35.5833 144.594 35.4375C145.073 35.3125 145.635 35.2812 146.281 35.3438C146.948 35.4062 147.25 35.5208 147.188 35.6875C147.125 35.8958 147.042 36.125 146.938 36.375C146.833 36.625 146.75 36.8854 146.688 37.1562C146.5 37.7396 146.281 38.375 146.031 39.0625C145.802 39.75 145.594 40.4062 145.406 41.0312C145.323 41.3438 145.229 41.6562 145.125 41.9688C145.042 42.2812 144.969 42.5625 144.906 42.8125C145.031 42.8333 145.312 42.8958 145.75 43C145.938 43.1875 145.99 43.4583 145.906 43.8125C145.823 44.1458 145.677 44.4479 145.469 44.7188C145.323 45.4688 145.198 45.8854 145.094 45.9688C144.969 46.0938 144.635 46.1875 144.094 46.25C144.031 46.5208 143.979 46.7396 143.938 46.9062C143.896 47.0521 143.854 47.2604 143.812 47.5312C143.75 47.8438 143.719 48.0938 143.719 48.2812C143.719 48.4688 143.719 48.6875 143.719 48.9375C143.698 49.4583 143.719 49.9062 143.781 50.2812C143.865 50.6354 144.031 50.8333 144.281 50.875C144.427 50.8958 144.615 50.8854 144.844 50.8438C145.073 50.7812 145.312 50.6875 145.562 50.5625C145.792 50.4375 146.031 50.2917 146.281 50.125C146.531 49.9375 146.771 49.75 147 49.5625C147.229 49.375 147.458 49.1667 147.688 48.9375C147.917 48.7083 148.125 48.4792 148.312 48.25C148.438 48.0833 148.521 47.9792 148.562 47.9375C148.604 47.875 148.667 47.7604 148.75 47.5938L150 50.5ZM175.688 50.4688C175.458 50.7604 175.188 51.0625 174.875 51.375C174.562 51.6667 174.24 51.9688 173.906 52.2812C173.719 52.4479 173.469 52.6042 173.156 52.75C172.844 52.8958 172.573 53.0521 172.344 53.2188C172.052 53.4479 171.792 53.6979 171.562 53.9688C171.354 54.2188 171.115 54.4375 170.844 54.625C170.406 54.9375 169.969 55.2396 169.531 55.5312C169.115 55.8229 168.75 56.0729 168.438 56.2812C168.312 56.5938 168.188 56.9062 168.062 57.2188C167.958 57.5521 167.854 57.875 167.75 58.1875C167.625 58.5625 167.458 58.9479 167.25 59.3438C167.042 59.7604 166.875 60.1458 166.75 60.5C166.646 60.7708 166.562 61.0521 166.5 61.3438C166.458 61.6354 166.396 61.9062 166.312 62.1562C166.062 62.8438 165.771 63.5 165.438 64.125C165.125 64.7708 164.854 65.375 164.625 65.9375C164.375 66.5 164.156 67.0521 163.969 67.5938C163.781 68.1354 163.573 68.6458 163.344 69.125C163.177 69.4792 162.969 69.8229 162.719 70.1562C162.49 70.5104 162.281 70.8333 162.094 71.125C161.844 71.5625 161.604 71.9688 161.375 72.3438C161.167 72.7188 160.969 73.0521 160.781 73.3438C160.594 73.6354 160.417 73.9167 160.25 74.1875C160.104 74.4583 159.938 74.6875 159.75 74.875C159.583 75.0625 159.375 75.2083 159.125 75.3125C158.875 75.4375 158.677 75.5312 158.531 75.5938C158.156 75.7812 157.792 75.8333 157.438 75.75C157.104 75.6875 156.781 75.5 156.469 75.1875C156.26 74.9792 156.115 74.6458 156.031 74.1875C155.969 73.7292 155.969 73.1875 156.031 72.5625C156.094 71.9167 156.24 71.1771 156.469 70.3438C156.719 69.5104 157.021 68.625 157.375 67.6875C157.688 66.8125 158.062 65.9375 158.5 65.0625C158.938 64.1875 159.396 63.3333 159.875 62.5C160.438 61.5208 161.031 60.5729 161.656 59.6562C162.281 58.7604 162.906 57.9375 163.531 57.1875C163.594 56.9792 163.729 56.7396 163.938 56.4688C164.167 56.1979 164.323 55.9271 164.406 55.6562C164.51 55.2812 164.552 54.875 164.531 54.4375C164.531 54 164.562 53.5833 164.625 53.1875C164.688 52.8125 164.792 52.4479 164.938 52.0938C165.104 51.7188 165.219 51.3646 165.281 51.0312C165.323 50.7812 165.323 50.5312 165.281 50.2812C165.24 50.0104 165.219 49.7812 165.219 49.5938C165.26 49.2604 165.25 48.8958 165.188 48.5C164.708 48.4583 164.406 48.4688 164.281 48.5312C164.115 48.6146 163.969 48.7708 163.844 49C163.74 49.2083 163.573 49.3958 163.344 49.5625C163.177 49.6875 162.969 49.8125 162.719 49.9375C162.49 50.0625 162.281 50.1979 162.094 50.3438C161.865 50.5104 161.646 50.6979 161.438 50.9062C161.25 51.1146 161.042 51.3021 160.812 51.4688C160.521 51.6771 160.208 51.9062 159.875 52.1562C159.562 52.3854 159.25 52.6042 158.938 52.8125C158.708 52.9375 158.438 53.0729 158.125 53.2188C157.812 53.3646 157.542 53.5 157.312 53.625C156.917 53.875 156.552 54.125 156.219 54.375C155.906 54.6042 155.573 54.7812 155.219 54.9062C154.906 55.0312 154.583 55.1562 154.25 55.2812C153.938 55.3854 153.646 55.4375 153.375 55.4375C153.042 55.4375 152.719 55.375 152.406 55.25C152.115 55.1042 151.875 54.9167 151.688 54.6875C151.521 54.5208 151.375 54.3021 151.25 54.0312C151.146 53.7396 151.094 53.4167 151.094 53.0625C151.094 52.7083 151.125 52.2917 151.188 51.8125C151.271 51.3125 151.406 50.7708 151.594 50.1875C151.698 49.8542 151.833 49.5 152 49.125C152.188 48.75 152.375 48.3646 152.562 47.9688C152.042 48.3021 151.552 48.7812 151.094 49.4062C150.635 50.0104 150.177 50.4688 149.719 50.7812L148.469 47.9375C148.698 47.7083 148.948 47.4688 149.219 47.2188C149.49 46.9688 149.771 46.7292 150.062 46.5C150.708 45.9167 151.406 45.3125 152.156 44.6875C152.927 44.0625 153.688 43.4688 154.438 42.9062C155.5 42.1146 156.573 41.3438 157.656 40.5938C158.76 39.8438 159.823 39.1667 160.844 38.5625C161.844 37.9583 162.792 37.4167 163.688 36.9375C164.604 36.4583 165.417 36.0938 166.125 35.8438C166.625 35.6562 167.083 35.5312 167.5 35.4688C167.917 35.3854 168.25 35.375 168.5 35.4375C168.75 35.5 169.01 35.5729 169.281 35.6562C169.552 35.7188 169.771 35.8125 169.938 35.9375C170.083 36.0625 170.229 36.2708 170.375 36.5625C170.542 36.8542 170.625 37.0729 170.625 37.2188C170.625 37.4479 170.562 37.6979 170.438 37.9688C170.312 38.2188 170.083 38.4688 169.75 38.7188C169.625 38.8229 169.458 38.9375 169.25 39.0625C169.062 39.1667 168.854 39.2604 168.625 39.3438C168.375 39.4479 168.083 39.5 167.75 39.5C167.438 39.5 167.146 39.5625 166.875 39.6875C166.125 40.0417 165.365 40.5208 164.594 41.125C163.823 41.7292 163.094 42.3125 162.406 42.875C161.823 43.3333 161.25 43.8125 160.688 44.3125C160.146 44.8125 159.656 45.2812 159.219 45.7188C158.802 46.1562 158.427 46.5833 158.094 47C157.76 47.4167 157.5 47.7812 157.312 48.0938C157.125 48.4271 157.01 48.7292 156.969 49C156.927 49.25 156.979 49.4375 157.125 49.5625C157.542 49.7708 157.833 49.8646 158 49.8438C158.125 49.8229 158.26 49.7396 158.406 49.5938C158.552 49.4479 158.719 49.3125 158.906 49.1875C159.031 49.125 159.219 49.0521 159.469 48.9688C159.719 48.8646 159.917 48.7604 160.062 48.6562C160.417 48.4062 160.75 48.1042 161.062 47.75C161.375 47.3958 161.729 47.0521 162.125 46.7188C162.5 46.4062 162.938 46.0521 163.438 45.6562C163.958 45.2604 164.479 44.8854 165 44.5312C165.354 44.3021 165.719 44.0729 166.094 43.8438C166.49 43.6146 166.854 43.4271 167.188 43.2812C167.479 43.1562 167.75 43.0521 168 42.9688C168.271 42.8854 168.5 42.8438 168.688 42.8438C169 42.8438 169.26 42.9479 169.469 43.1562C169.698 43.3438 169.865 43.5938 169.969 43.9062C170.094 44.2188 170.167 44.5729 170.188 44.9688C170.229 45.3646 170.25 45.7812 170.25 46.2188C170.25 46.5938 170.229 46.9896 170.188 47.4062C170.146 47.8021 170.094 48.1875 170.031 48.5625C169.948 49.1458 169.844 49.7188 169.719 50.2812C169.594 50.8438 169.469 51.3542 169.344 51.8125C169.531 51.6875 169.729 51.5521 169.938 51.4062C170.146 51.2396 170.344 51.0938 170.531 50.9688C170.74 50.8229 170.948 50.6354 171.156 50.4062C171.365 50.1562 171.562 49.9583 171.75 49.8125C171.979 49.6458 172.208 49.5104 172.438 49.4062C172.667 49.2812 172.865 49.1562 173.031 49.0312C173.344 48.7812 173.615 48.5312 173.844 48.2812C174.094 48.0104 174.292 47.75 174.438 47.5L175.688 50.4688ZM174.375 47.6875C174.625 47.25 174.948 46.8125 175.344 46.375C175.74 45.9167 176.24 45.4479 176.844 44.9688C176.906 44.5521 176.969 44.1458 177.031 43.75C177.094 43.3333 177.135 42.9167 177.156 42.5C177.219 42.2083 177.312 41.8646 177.438 41.4688C177.583 41.0729 177.74 40.6458 177.906 40.1875C178.094 39.7292 178.344 39.1562 178.656 38.4688C178.99 37.7812 179.417 37.0104 179.938 36.1562C180.375 35.6771 180.833 35.1562 181.312 34.5938C181.792 34.0104 182.271 33.4271 182.75 32.8438C182.979 32.6562 183.229 32.4792 183.5 32.3125C183.771 32.1458 184.042 31.9583 184.312 31.75C184.562 31.6667 184.844 31.5938 185.156 31.5312C185.469 31.4688 185.812 31.4375 186.188 31.4375C186.708 31.4375 187.125 31.4896 187.438 31.5938C187.771 31.6979 188.042 31.875 188.25 32.125C188.396 32.2917 188.531 32.5417 188.656 32.875C188.802 33.2083 188.938 33.6146 189.062 34.0938C189.125 34.5104 189.198 34.9688 189.281 35.4688C189.281 35.3438 189.24 35.3958 189.156 35.625C189.094 35.8542 188.99 36.2188 188.844 36.7188L188.562 37.7188C188.271 38.7188 187.615 39.875 186.594 41.1875C185.573 42.5 184.198 44 182.469 45.6875C182.323 45.8333 182.198 46.0208 182.094 46.25C181.99 46.4583 181.938 46.6875 181.938 46.9375C181.938 47.375 182.01 47.7604 182.156 48.0938C182.323 48.4271 182.552 48.6771 182.844 48.8438C183.01 48.9688 183.271 49.0938 183.625 49.2188C184 49.3438 184.438 49.4583 184.938 49.5625C185.75 49.5 186.49 49.3646 187.156 49.1562C187.823 48.9479 188.417 48.6979 188.938 48.4062C189.042 48.3438 189.208 48.2604 189.438 48.1562C189.667 48.0312 189.896 47.875 190.125 47.6875C190.396 48.2917 190.635 48.8333 190.844 49.3125C191.052 49.7917 191.219 50.2083 191.344 50.5625C190.156 51.7292 189.073 52.6146 188.094 53.2188C187.135 53.8021 186.25 54.0938 185.438 54.0938C185.104 54.3021 184.719 54.4583 184.281 54.5625C183.865 54.6458 183.365 54.6875 182.781 54.6875C182.01 54.6875 181.323 54.5729 180.719 54.3438C180.135 54.1146 179.646 53.7812 179.25 53.3438C179.042 53.1354 178.833 52.8333 178.625 52.4375C178.417 52.0208 178.198 51.5312 177.969 50.9688C177.781 50.5104 177.604 50.1771 177.438 49.9688C177.271 49.7396 177.083 49.625 176.875 49.625C176.708 49.625 176.521 49.7083 176.312 49.875C176.104 50.0208 175.875 50.25 175.625 50.5625C175.542 50.25 175.396 49.8646 175.188 49.4062C174.979 48.9479 174.708 48.375 174.375 47.6875ZM184.375 37.5312C183.917 37.5312 183.302 38.1354 182.531 39.3438C181.76 40.5312 181.375 41.4062 181.375 41.9688C181.375 42.0938 181.396 42.1875 181.438 42.25C181.5 42.2917 181.615 42.3125 181.781 42.3125C182.01 42.3125 182.198 42.1979 182.344 41.9688C182.49 41.7188 182.625 41.4896 182.75 41.2812C182.979 41.0729 183.198 40.8542 183.406 40.625C183.635 40.375 183.854 40.1354 184.062 39.9062C184.312 39.6146 184.5 39.3229 184.625 39.0312C184.75 38.7396 184.812 38.4479 184.812 38.1562C184.812 37.9688 184.771 37.8229 184.688 37.7188C184.625 37.5938 184.521 37.5312 184.375 37.5312ZM190.125 47.6875C190.208 47.625 190.281 47.5521 190.344 47.4688C190.385 47.3854 190.406 47.2812 190.406 47.1562C190.76 46.8646 191.156 46.4688 191.594 45.9688C192.052 45.4479 192.562 44.8438 193.125 44.1562C193.583 43.5312 194.052 42.9062 194.531 42.2812C195.031 41.6562 195.562 41.0312 196.125 40.4062C196.583 39.7812 197.031 39.1354 197.469 38.4688C197.927 37.7812 198.406 37.1146 198.906 36.4688C199.74 36.0729 200.385 35.7917 200.844 35.625C201.302 35.4583 201.615 35.375 201.781 35.375C202.094 35.375 202.333 35.4792 202.5 35.6875C202.667 35.875 202.75 36.1562 202.75 36.5312C202.75 36.6562 202.719 36.8333 202.656 37.0625C202.594 37.2917 202.521 37.5417 202.438 37.8125C202.292 38.2292 202.125 38.6562 201.938 39.0938C201.771 39.8229 201.573 40.5521 201.344 41.2812C201.115 42.0104 200.896 42.7292 200.688 43.4375C200.479 44.3333 200.312 45.1562 200.188 45.9062C200.083 46.6562 200.031 47.3438 200.031 47.9688C200.031 49.1354 200.083 50 200.188 50.5625C200.312 51.125 200.479 51.375 200.688 51.3125C200.896 51.1875 201.156 51.0417 201.469 50.875C201.781 50.6875 202.146 50.4792 202.562 50.25C202.938 49.8542 203.354 49.3646 203.812 48.7812C204.292 48.1979 204.865 47.5104 205.531 46.7188C205.906 46.1354 206.292 45.5625 206.688 45C206.833 44.8333 207 44.6354 207.188 44.4062C207.396 44.1771 207.583 43.9479 207.75 43.7188C208.146 42.7188 208.583 41.9792 209.062 41.5C209.562 41 210.115 40.75 210.719 40.75C211.26 40.75 211.688 40.8229 212 40.9688C212.333 41.0938 212.562 41.2917 212.688 41.5625C212.75 41.7083 212.802 41.9583 212.844 42.3125C212.885 42.6667 212.906 43.1354 212.906 43.7188C212.906 43.9479 212.948 44.2812 213.031 44.7188C213.135 45.1562 213.188 45.4792 213.188 45.6875C213.188 46.4583 213.323 47.0417 213.594 47.4375C213.865 47.8125 214.281 48 214.844 48C215.01 48 215.208 47.9688 215.438 47.9062C215.667 47.8438 215.896 47.7708 216.125 47.6875L217.375 50.5625C216.125 51.3125 215.094 51.8854 214.281 52.2812C213.49 52.6562 212.896 52.8438 212.5 52.8438C211.458 52.8438 210.604 52.5729 209.938 52.0312C209.271 51.4896 208.781 50.6875 208.469 49.625C208.427 49.375 208.333 49.125 208.188 48.875C208.062 48.625 207.896 48.375 207.688 48.125C207.5 48.3333 207.281 48.5833 207.031 48.875C206.802 49.1667 206.552 49.4583 206.281 49.75C205.719 50.4375 205.156 51.1146 204.594 51.7812C204.031 52.4271 203.458 53.0729 202.875 53.7188C202.146 54.5729 201.406 55.1979 200.656 55.5938C199.927 55.9688 199.24 56.1562 198.594 56.1562C197.635 56.1562 196.865 55.875 196.281 55.3125C195.698 54.7292 195.323 53.875 195.156 52.75C194.969 51.6667 194.844 50.8229 194.781 50.2188C194.719 49.6146 194.708 49.25 194.75 49.125C194.708 48.5208 194.646 48.0625 194.562 47.75C194.5 47.4375 194.396 47.2812 194.25 47.2812L194.062 47.375L192.281 49.2188C192.219 49.3646 192.115 49.5521 191.969 49.7812C191.823 49.9896 191.625 50.25 191.375 50.5625C191.292 50.25 191.146 49.8646 190.938 49.4062C190.729 48.9479 190.458 48.375 190.125 47.6875ZM218.594 21.125C218.719 21.1458 218.802 21.3125 218.844 21.625C218.906 21.9375 218.854 22.4479 218.688 23.1562C218.375 24.4896 217.958 25.6354 217.438 26.5938C216.938 27.5312 216.135 28.6562 215.031 29.9688C213.635 31.6354 212.26 32.8854 210.906 33.7188C209.573 34.5521 208.479 34.9688 207.625 34.9688C207.188 34.9688 206.74 34.8542 206.281 34.625C205.844 34.3958 205.5 34.0208 205.25 33.5C205.021 32.9792 204.958 32.3229 205.062 31.5312C205.188 30.7188 205.583 29.7083 206.25 28.5C206.75 27.6042 207.458 27.0938 208.375 26.9688C209.312 26.8229 209.781 26.8542 209.781 27.0625C209.76 28.0208 209.844 28.6458 210.031 28.9375C210.219 29.2292 210.531 29.375 210.969 29.375C211.531 29.375 212.458 28.75 213.75 27.5C215.042 26.2292 216.312 24.3958 217.562 22C217.729 21.6875 217.906 21.4583 218.094 21.3125C218.281 21.1458 218.448 21.0833 218.594 21.125Z" fill="#4A3202"/>
<path d="M92.4648 9.08887V12.6338C92.4648 12.8779 92.3428 13 92.0986 13C91.8545 13 91.7324 12.8779 91.7324 12.6338V3.1123C91.7324 2.86816 91.8545 2.74609 92.0986 2.74609C92.3428 2.74609 92.4648 2.86816 92.4648 3.1123V7.86572L96.2075 2.89258C96.2808 2.79004 96.376 2.73877 96.4932 2.73877C96.5908 2.73877 96.6787 2.77783 96.7568 2.85596C96.835 2.9292 96.874 3.01465 96.874 3.1123C96.874 3.19043 96.8472 3.26367 96.7935 3.33203L94.186 6.79639L96.8301 12.48C96.8545 12.5337 96.8667 12.5898 96.8667 12.6484C96.8667 12.8828 96.7397 13 96.4858 13C96.3442 13 96.2393 12.9292 96.1709 12.7876L93.688 7.45557L92.4648 9.08887ZM105.494 11.5352C105.494 11.9404 105.35 12.2871 105.062 12.5752C104.778 12.8584 104.434 13 104.029 13H102.564C102.159 13 101.812 12.8584 101.524 12.5752C101.241 12.2871 101.099 11.9404 101.099 11.5352V7.14062C101.099 6.74023 101.243 6.396 101.531 6.10791C101.819 5.81982 102.164 5.67578 102.564 5.67578H104.029C104.429 5.67578 104.774 5.81982 105.062 6.10791C105.35 6.396 105.494 6.74023 105.494 7.14062V11.5352ZM104.761 11.5352V7.14062C104.761 6.94043 104.688 6.76953 104.542 6.62793C104.4 6.48145 104.229 6.4082 104.029 6.4082H102.564C102.364 6.4082 102.191 6.48145 102.044 6.62793C101.902 6.76953 101.832 6.94043 101.832 7.14062V11.5352C101.832 11.7354 101.902 11.9087 102.044 12.0552C102.191 12.1968 102.364 12.2676 102.564 12.2676H104.029C104.229 12.2676 104.4 12.1968 104.542 12.0552C104.688 11.9087 104.761 11.7354 104.761 11.5352ZM114.128 12.6338C114.128 12.8779 114.006 13 113.762 13C113.518 13 113.396 12.8779 113.396 12.6338V9.7041H110.466V12.6338C110.466 12.8779 110.344 13 110.1 13C109.856 13 109.734 12.8779 109.734 12.6338V6.04199C109.734 5.79785 109.856 5.67578 110.1 5.67578C110.344 5.67578 110.466 5.79785 110.466 6.04199V8.97168H113.396V6.04199C113.396 5.79785 113.518 5.67578 113.762 5.67578C114.006 5.67578 114.128 5.79785 114.128 6.04199V12.6338ZM122.763 11.5352C122.763 11.9355 122.618 12.2798 122.33 12.5679C122.047 12.856 121.7 13 121.29 13H119.84C119.43 13 119.081 12.856 118.793 12.5679C118.51 12.2798 118.368 11.9355 118.368 11.5352V7.14062C118.368 6.73535 118.51 6.39111 118.793 6.10791C119.081 5.81982 119.43 5.67578 119.84 5.67578H122.03V4.21094C122.03 4.00586 121.957 3.83252 121.81 3.69092C121.669 3.54932 121.495 3.47852 121.29 3.47852H118.734C118.49 3.47852 118.368 3.35645 118.368 3.1123C118.368 2.86816 118.49 2.74609 118.734 2.74609H121.29C121.696 2.74609 122.042 2.89014 122.33 3.17822C122.618 3.46631 122.763 3.81055 122.763 4.21094V11.5352ZM122.03 11.5352V6.4082H119.84C119.635 6.4082 119.459 6.48145 119.313 6.62793C119.171 6.76953 119.1 6.94043 119.1 7.14062V11.5352C119.1 11.7354 119.171 11.9087 119.313 12.0552C119.459 12.1968 119.635 12.2676 119.84 12.2676H121.29C121.495 12.2676 121.669 12.1968 121.81 12.0552C121.957 11.9087 122.03 11.7354 122.03 11.5352ZM131.397 12.6338C131.397 12.8779 131.275 13 131.031 13H128.467C128.062 13 127.715 12.8584 127.427 12.5752C127.144 12.2871 127.002 11.9404 127.002 11.5352V6.04199C127.002 5.79785 127.124 5.67578 127.369 5.67578C127.613 5.67578 127.735 5.79785 127.735 6.04199V11.5352C127.735 11.7354 127.806 11.9087 127.947 12.0552C128.094 12.1968 128.267 12.2676 128.467 12.2676H130.664V6.04199C130.664 5.79785 130.787 5.67578 131.031 5.67578C131.275 5.67578 131.397 5.79785 131.397 6.04199V12.6338ZM138.566 6.4082H136.369V12.6338C136.369 12.8779 136.247 13 136.003 13C135.759 13 135.637 12.8779 135.637 12.6338V6.04199C135.637 5.79785 135.759 5.67578 136.003 5.67578H140.764C141.164 5.67578 141.508 5.81982 141.796 6.10791C142.084 6.396 142.229 6.74023 142.229 7.14062V12.6338C142.229 12.8779 142.106 13 141.862 13C141.618 13 141.496 12.8779 141.496 12.6338V7.14062C141.496 6.94043 141.423 6.76953 141.276 6.62793C141.135 6.48145 140.964 6.4082 140.764 6.4082H139.299V12.6338C139.299 12.8779 139.177 13 138.933 13C138.688 13 138.566 12.8779 138.566 12.6338V6.4082ZM147.201 8.979H150.13V7.14795C150.13 6.94775 150.057 6.77686 149.911 6.63525C149.769 6.48877 149.598 6.41553 149.398 6.41553H147.926C147.726 6.41553 147.555 6.48877 147.413 6.63525C147.272 6.77686 147.201 6.94775 147.201 7.14795V8.979ZM147.201 9.7041V11.5352C147.201 11.7354 147.272 11.9087 147.413 12.0552C147.555 12.1968 147.726 12.2676 147.926 12.2676H150.489C150.733 12.2676 150.856 12.3896 150.856 12.6338C150.856 12.8779 150.733 13 150.489 13H147.926C147.521 13 147.176 12.8584 146.893 12.5752C146.61 12.2871 146.468 11.9404 146.468 11.5352V7.14795C146.468 6.74756 146.61 6.40332 146.893 6.11523C147.181 5.82715 147.525 5.68311 147.926 5.68311H149.398C149.803 5.68311 150.148 5.82715 150.431 6.11523C150.719 6.39844 150.863 6.74268 150.863 7.14795V9.33789C150.863 9.58203 150.738 9.7041 150.489 9.7041H147.201ZM155.835 12.2749H158.04C158.24 12.2749 158.411 12.2017 158.552 12.0552C158.694 11.9087 158.765 11.7354 158.765 11.5352V7.1333C158.765 6.93799 158.692 6.76953 158.545 6.62793C158.404 6.48145 158.235 6.4082 158.04 6.4082H155.835V12.2749ZM155.835 13.0073V15.5635C155.835 15.8076 155.713 15.9297 155.469 15.9297C155.225 15.9297 155.103 15.8076 155.103 15.5635V6.04199C155.103 5.79785 155.225 5.67578 155.469 5.67578H158.04C158.44 5.67578 158.782 5.81982 159.065 6.10791C159.353 6.39111 159.497 6.73291 159.497 7.1333V11.5352C159.497 11.9355 159.353 12.2822 159.065 12.5752C158.782 12.8633 158.44 13.0073 158.04 13.0073H155.835ZM167.765 13H165.202C164.797 13 164.45 12.8584 164.162 12.5752C163.879 12.2871 163.737 11.9404 163.737 11.5352V7.14062C163.737 6.74023 163.881 6.396 164.169 6.10791C164.457 5.81982 164.802 5.67578 165.202 5.67578H167.765C168.01 5.67578 168.132 5.79785 168.132 6.04199C168.132 6.28613 168.01 6.4082 167.765 6.4082H165.202C165.002 6.4082 164.828 6.48145 164.682 6.62793C164.54 6.76953 164.47 6.94043 164.47 7.14062V11.5352C164.47 11.7354 164.54 11.9087 164.682 12.0552C164.828 12.1968 165.002 12.2676 165.202 12.2676H167.765C168.01 12.2676 168.132 12.3896 168.132 12.6338C168.132 12.8779 168.01 13 167.765 13ZM176.788 6.07129C176.788 6.15918 176.754 6.24219 176.685 6.32031C175.929 7.15039 175.172 7.97803 174.415 8.80322L176.715 12.436C176.754 12.4995 176.773 12.5654 176.773 12.6338C176.773 12.7363 176.734 12.8242 176.656 12.8975C176.578 12.9658 176.49 13 176.392 13C176.27 13 176.173 12.9438 176.1 12.8315L173.91 9.36719C173.768 9.52832 173.502 9.82373 173.111 10.2534V12.6338C173.111 12.8779 172.989 13 172.745 13C172.501 13 172.379 12.8779 172.379 12.6338V6.04199C172.379 5.79785 172.501 5.67578 172.745 5.67578C172.989 5.67578 173.111 5.79785 173.111 6.04199V9.15479L176.143 5.82227C176.222 5.73926 176.309 5.69775 176.407 5.69775C176.51 5.69775 176.598 5.73682 176.671 5.81494C176.749 5.88818 176.788 5.97363 176.788 6.07129ZM184.587 11.5352V6.4082H182.39C182.19 6.4082 182.017 6.48145 181.87 6.62793C181.729 6.76953 181.658 6.94043 181.658 7.14062V11.5352C181.658 11.7354 181.729 11.9087 181.87 12.0552C182.017 12.1968 182.19 12.2676 182.39 12.2676H183.855C184.055 12.2676 184.226 12.1968 184.368 12.0552C184.514 11.9087 184.587 11.7354 184.587 11.5352ZM186.082 12.6411C186.082 12.895 185.962 13.022 185.723 13.022C185.513 13.022 185.256 12.8511 184.954 12.5093C184.666 12.8364 184.299 13 183.855 13H182.39C181.985 13 181.638 12.8584 181.35 12.5752C181.067 12.2871 180.925 11.9404 180.925 11.5352V7.14062C180.925 6.74023 181.069 6.396 181.357 6.10791C181.646 5.81982 181.99 5.67578 182.39 5.67578H184.954C185.198 5.67578 185.32 5.79785 185.32 6.04199V11.5498C185.32 11.916 185.486 12.165 185.818 12.2969C185.994 12.3652 186.082 12.48 186.082 12.6411ZM193.302 8.97168V6.4082H191.105C190.905 6.4082 190.732 6.48145 190.585 6.62793C190.443 6.76953 190.373 6.94043 190.373 7.14062V8.23926C190.373 8.43945 190.443 8.61279 190.585 8.75928C190.732 8.90088 190.905 8.97168 191.105 8.97168H193.302ZM194.035 12.6338C194.035 12.8779 193.913 13 193.669 13C193.424 13 193.302 12.8779 193.302 12.6338V9.7041H192.05L190.329 12.8096C190.255 12.9365 190.153 13 190.021 13C189.762 13 189.633 12.8804 189.633 12.6411C189.633 12.5825 189.65 12.5215 189.684 12.458L191.215 9.7041H191.105C190.7 9.7041 190.353 9.5625 190.065 9.2793C189.782 8.99121 189.64 8.64453 189.64 8.23926V7.14062C189.64 6.74023 189.782 6.396 190.065 6.10791C190.353 5.81982 190.7 5.67578 191.105 5.67578H193.669C193.913 5.67578 194.035 5.79785 194.035 6.04199V12.6338Z" fill="#432D03"/>
</svg>
